<?xml version="1.0" encoding="UTF-8" ?>
<!DOCTYPE svg PUBLIC "-//W3C//DTD SVG 1.1//EN" "http://www.w3.org/Graphics/SVG/1.1/DTD/svg11.dtd">
<svg width="246pt" height="286pt" viewBox="0 0 246 286" version="1.1" xmlns="http://www.w3.org/2000/svg">
<path fill="#ffffff" d=" M 0.00 0.00 L 82.30 0.00 C 80.42 2.29 79.11 4.98 77.57 7.50 C 65.53 28.76 53.03 49.78 41.05 71.07 L 40.82 71.52 C 26.99 94.78 13.92 118.50 0.00 141.70 L 0.00 0.00 Z" />
<path fill="#3ebbfd" d=" M 82.30 0.00 L 82.72 0.00 C 95.46 23.97 110.01 46.95 123.03 70.78 L 123.12 71.24 C 95.77 70.97 68.41 71.28 41.05 71.07 C 53.03 49.78 65.53 28.76 77.57 7.50 C 79.11 4.98 80.42 2.29 82.30 0.00 Z" />
<path fill="#48c8fd" d=" M 82.72 0.00 L 163.41 0.00 C 162.74 2.74 161.01 5.03 159.59 7.41 C 159.56 7.46 159.49 7.57 159.46 7.62 C 158.57 9.19 157.66 10.75 156.73 12.29 C 156.67 12.41 156.53 12.66 156.46 12.78 C 155.25 15.04 153.98 17.26 152.58 19.41 L 152.52 19.50 L 152.46 19.62 C 151.29 21.94 149.99 24.20 148.60 26.40 C 148.57 26.46 148.50 26.58 148.46 26.64 C 147.53 28.25 146.57 29.84 145.59 31.42 C 145.56 31.47 145.51 31.57 145.48 31.63 C 144.31 33.96 143.04 36.24 141.60 38.41 C 141.56 38.46 141.50 38.57 141.46 38.63 C 140.27 40.94 138.99 43.21 137.59 45.40 C 137.56 45.46 137.49 45.57 137.46 45.63 C 136.26 47.94 135.01 50.22 133.59 52.41 L 133.53 52.50 L 133.47 52.62 C 132.56 54.25 131.58 55.84 130.59 57.41 C 130.56 57.47 130.50 57.57 130.47 57.62 C 129.29 59.95 128.02 62.23 126.59 64.41 C 126.56 64.46 126.50 64.57 126.47 64.63 C 125.36 66.70 124.20 68.74 123.03 70.78 C 110.01 46.95 95.46 23.97 82.72 0.00 Z" />
<path fill="#1f7390" d=" M 163.41 0.00 L 163.78 0.00 C 172.38 13.94 180.02 28.46 188.44 42.52 C 193.97 52.34 199.76 62.01 205.31 71.81 L 204.47 71.76 C 184.31 71.38 164.15 71.75 143.99 71.58 C 137.07 71.67 130.15 71.40 123.23 71.80 L 123.12 71.24 L 123.03 70.78 C 124.20 68.74 125.36 66.70 126.47 64.63 C 126.50 64.57 126.56 64.46 126.59 64.41 C 128.02 62.23 129.29 59.95 130.47 57.62 C 130.50 57.57 130.56 57.47 130.59 57.41 C 131.58 55.84 132.56 54.25 133.47 52.62 C 133.50 52.57 133.56 52.46 133.59 52.41 C 135.01 50.22 136.26 47.94 137.46 45.63 C 137.49 45.57 137.56 45.46 137.59 45.40 C 138.99 43.21 140.27 40.94 141.46 38.63 C 141.50 38.57 141.56 38.46 141.60 38.41 C 143.04 36.24 144.31 33.96 145.48 31.63 C 145.51 31.57 145.56 31.47 145.59 31.42 C 146.57 29.84 147.53 28.25 148.46 26.64 C 148.50 26.58 148.57 26.46 148.60 26.40 C 149.99 24.20 151.29 21.94 152.46 19.62 C 152.49 19.56 152.55 19.46 152.58 19.41 C 153.98 17.26 155.25 15.04 156.46 12.78 C 156.53 12.66 156.67 12.41 156.73 12.29 C 157.66 10.75 158.57 9.19 159.46 7.62 C 159.49 7.57 159.56 7.46 159.59 7.41 C 161.01 5.03 162.74 2.74 163.41 0.00 Z" />
<path fill="#ffffff" d=" M 163.78 0.00 L 246.00 0.00 L 246.00 142.64 C 232.60 118.93 218.62 95.57 205.31 71.81 C 199.76 62.01 193.97 52.34 188.44 42.52 C 180.02 28.46 172.38 13.94 163.78 0.00 Z" />
<path fill="#73b09d" d=" M 159.46 7.62 C 159.49 7.57 159.56 7.46 159.59 7.41 C 159.56 7.46 159.49 7.57 159.46 7.62 Z" />
<path fill="#83b29e" d=" M 156.46 12.78 C 156.53 12.66 156.67 12.41 156.73 12.29 C 156.67 12.41 156.53 12.66 156.46 12.78 Z" />
<path fill="#7ab19d" d=" M 152.52 19.50 L 152.58 19.41 C 152.55 19.46 152.49 19.56 152.46 19.62 L 152.52 19.50 Z" />
<path fill="#73b09d" d=" M 148.46 26.64 C 148.50 26.58 148.57 26.46 148.60 26.40 C 148.57 26.46 148.50 26.58 148.46 26.64 Z" />
<path fill="#83b29e" d=" M 145.48 31.63 C 145.51 31.57 145.56 31.47 145.59 31.42 C 145.56 31.47 145.51 31.57 145.48 31.63 Z" />
<path fill="#83b29e" d=" M 141.46 38.63 C 141.50 38.57 141.56 38.46 141.60 38.41 C 141.56 38.46 141.50 38.57 141.46 38.63 Z" />
<path fill="#7ab19d" d=" M 137.46 45.63 C 137.49 45.57 137.56 45.46 137.59 45.40 C 137.56 45.46 137.49 45.57 137.46 45.63 Z" />
<path fill="#73b09d" d=" M 133.53 52.50 L 133.59 52.41 C 133.56 52.46 133.50 52.57 133.47 52.62 L 133.53 52.50 Z" />
<path fill="#83b29e" d=" M 130.47 57.62 C 130.50 57.57 130.56 57.47 130.59 57.41 C 130.56 57.47 130.50 57.57 130.47 57.62 Z" />
<path fill="#83b29e" d=" M 126.47 64.63 C 126.50 64.57 126.56 64.46 126.59 64.41 C 126.56 64.46 126.50 64.57 126.47 64.63 Z" />
<path fill="#34aefe" d=" M 41.05 71.07 C 68.41 71.28 95.77 70.97 123.12 71.24 L 123.23 71.80 L 123.36 72.47 C 121.67 74.55 120.36 76.89 119.13 79.27 C 106.86 100.41 94.64 121.59 82.44 142.76 C 77.26 135.32 73.30 127.13 68.55 119.43 C 59.36 103.42 50.18 87.42 40.82 71.52 L 41.05 71.07 Z" />
<path fill="#2ea1e4" d=" M 0.00 141.70 C 13.92 118.50 26.99 94.78 40.82 71.52 C 50.18 87.42 59.36 103.42 68.55 119.43 C 73.30 127.13 77.26 135.32 82.44 142.76 L 82.49 143.12 C 55.00 142.83 27.50 143.12 0.00 142.98 L 0.00 141.70 Z" />
<path fill="#278cb5" d=" M 123.23 71.80 C 130.15 71.40 137.07 71.67 143.99 71.58 C 164.15 71.75 184.31 71.38 204.47 71.76 C 192.36 93.44 179.64 114.79 167.36 136.39 C 166.22 138.55 164.84 140.56 163.40 142.54 C 157.25 131.22 150.55 120.20 144.16 109.02 C 137.37 96.76 129.85 84.89 123.36 72.47 L 123.23 71.80 Z" />
<path fill="#5bd7d4" d=" M 204.47 71.76 L 205.31 71.81 C 218.62 95.57 232.60 118.93 246.00 142.64 L 246.00 142.84 C 218.57 143.23 191.14 142.81 163.71 143.08 C 163.63 142.95 163.48 142.67 163.40 142.54 C 164.84 140.56 166.22 138.55 167.36 136.39 C 179.64 114.79 192.36 93.44 204.47 71.76 Z" />
<path fill="#ffffff" d=" M 123.36 72.47 C 129.85 84.89 137.37 96.76 144.16 109.02 C 150.55 120.20 157.25 131.22 163.40 142.54 C 163.48 142.67 163.63 142.95 163.71 143.08 L 163.96 143.50 C 159.40 149.94 156.13 157.26 151.80 163.88 C 142.57 180.45 132.67 196.65 123.53 213.26 C 123.17 212.94 122.45 212.31 122.09 211.99 C 108.87 189.19 95.73 166.34 82.55 143.52 L 82.49 143.12 L 82.44 142.76 C 94.64 121.59 106.86 100.41 119.13 79.27 C 120.36 76.89 121.67 74.55 123.36 72.47 Z" />
<path fill="#2994cb" d=" M 0.00 142.98 C 27.50 143.12 55.00 142.83 82.49 143.12 L 82.55 143.52 C 68.70 166.96 55.11 190.57 41.69 214.25 L 40.66 214.21 C 26.94 190.88 13.56 167.35 0.00 143.92 L 0.00 142.98 Z" />
<path fill="#53cecf" d=" M 163.71 143.08 C 191.14 142.81 218.57 143.23 246.00 142.84 L 246.00 143.11 C 232.84 167.10 218.55 190.45 205.23 214.35 C 191.21 190.90 178.06 166.92 163.96 143.50 L 163.71 143.08 Z" />
<path fill="#1e719f" d=" M 82.55 143.52 C 95.73 166.34 108.87 189.19 122.09 211.99 C 122.09 212.55 122.09 213.68 122.09 214.25 C 95.29 214.47 68.48 214.44 41.69 214.25 C 55.11 190.57 68.70 166.96 82.55 143.52 Z" />
<path fill="#4bc6cb" d=" M 151.80 163.88 C 156.13 157.26 159.40 149.94 163.96 143.50 C 178.06 166.92 191.21 190.90 205.23 214.35 C 205.04 214.68 204.66 215.34 204.47 215.67 C 200.16 213.98 195.47 214.92 190.98 214.70 C 168.30 214.93 145.60 214.34 122.93 214.96 L 121.95 215.08 L 122.09 214.25 C 122.09 213.68 122.09 212.55 122.09 211.99 C 122.45 212.31 123.17 212.94 123.53 213.26 C 132.67 196.65 142.57 180.45 151.80 163.88 Z" />
<path fill="#ffffff" d=" M 205.23 214.35 C 218.55 190.45 232.84 167.10 246.00 143.11 L 246.00 286.00 L 163.77 286.00 C 177.43 262.61 190.89 239.10 204.47 215.67 C 204.66 215.34 205.04 214.68 205.23 214.35 Z" />
<path fill="#ffffff" d=" M 0.00 143.92 C 13.56 167.35 26.94 190.88 40.66 214.21 C 54.32 237.78 67.94 261.36 81.53 284.97 C 81.37 285.23 81.05 285.74 80.89 286.00 L 0.00 286.00 L 0.00 143.92 Z" />
<path fill="#175c7f" d=" M 40.66 214.21 L 41.69 214.25 C 68.48 214.44 95.29 214.47 122.09 214.25 L 121.95 215.08 C 119.96 218.83 117.69 222.43 115.46 226.04 L 115.23 226.30 L 115.09 226.63 C 110.40 235.17 105.52 243.60 100.61 252.01 L 100.22 252.26 L 100.09 252.73 C 96.65 258.87 93.20 265.01 89.53 271.02 L 89.21 271.29 L 89.10 271.71 C 87.90 273.79 86.94 276.00 85.63 278.02 L 85.22 278.26 L 85.08 278.73 C 84.00 280.87 82.87 282.98 81.53 284.97 C 67.94 261.36 54.32 237.78 40.66 214.21 Z" />
<path fill="#3caca2" d=" M 121.95 215.08 L 122.93 214.96 C 136.20 238.79 150.41 262.09 163.54 286.00 L 80.89 286.00 C 81.05 285.74 81.37 285.23 81.53 284.97 C 82.87 282.98 84.00 280.87 85.08 278.73 C 85.22 278.56 85.49 278.20 85.63 278.02 C 86.94 276.00 87.90 273.79 89.10 271.71 C 89.20 271.54 89.42 271.19 89.53 271.02 C 93.20 265.01 96.65 258.87 100.09 252.73 C 100.22 252.55 100.48 252.19 100.61 252.01 C 105.52 243.60 110.40 235.17 115.09 226.63 C 115.19 226.48 115.37 226.19 115.46 226.04 C 117.69 222.43 119.96 218.83 121.95 215.08 Z" />
<path fill="#43bab6" d=" M 122.93 214.96 C 145.60 214.34 168.30 214.93 190.98 214.70 C 195.47 214.92 200.16 213.98 204.47 215.67 C 190.89 239.10 177.43 262.61 163.77 286.00 L 163.54 286.00 C 150.41 262.09 136.20 238.79 122.93 214.96 Z" />
<path fill="#6fe5ce" d=" M 115.23 226.30 L 115.46 226.04 C 115.37 226.19 115.19 226.48 115.09 226.63 L 115.23 226.30 Z" />
<path fill="#6fe5ce" d=" M 100.22 252.26 L 100.61 252.01 C 100.48 252.19 100.22 252.55 100.09 252.73 L 100.22 252.26 Z" />
<path fill="#6fe5ce" d=" M 89.21 271.29 L 89.53 271.02 C 89.42 271.19 89.20 271.54 89.10 271.71 L 89.21 271.29 Z" />
<path fill="#6fe5ce" d=" M 85.22 278.26 L 85.63 278.02 C 85.49 278.20 85.22 278.56 85.08 278.73 L 85.22 278.26 Z" />
</svg>
